<?xml version="1.0" encoding="utf-8"?>
<!-- Generator: Adobe Illustrator 21.0.0, SVG Export Plug-In . SVG Version: 6.00 Build 0)  -->
<svg version="1.1" id="Layer_1" xmlns="http://www.w3.org/2000/svg" xmlns:xlink="http://www.w3.org/1999/xlink" x="0px" y="0px"
	 viewBox="0 0 878 208" style="enable-background:new 0 0 878 208;" xml:space="preserve">
<style type="text/css">
	.st0{fill:#B29BAA;}
	.st1{fill:#FFFFFF;}
</style>
<polygon class="st0" points="334.6,16.1 327.5,23.2 327.5,207.4 367.3,207.4 374.3,200.4 334.6,200.4 "/>
<polygon class="st0" points="478.5,87.8 471.5,98.5 471.5,207.4 511.8,207.4 518.8,200.4 478.5,200.4 "/>
<polygon class="st0" points="389.2,121.1 419.1,166.6 425.8,160 389.2,104.3 "/>
<polygon class="st0" points="7.3,16.1 0.3,23.2 0.3,207.4 140.5,207.4 147.6,200.4 7.3,200.4 "/>
<path class="st1" d="M22.1,1.3h139v36.1H62.4v37.4h86.9v36.1H62.4v38.7h100v36.1H22.1L22.1,1.3L22.1,1.3z"/>
<polygon class="st0" points="134.4,125.6 62.4,125.6 62.4,132.7 127.4,132.7 "/>
<path class="st1" d="M349.4,1.3h43.7l48.4,77.9L490,1.3h43.7v184.3h-40.3V65.2L441,144.7L389.1,66v119.5h-39.8L349.4,1.3L349.4,1.3z
	"/>
<polygon class="st0" points="145,53.5 62.4,53.5 62.4,60.5 137.9,60.5 "/>
<polygon class="st0" points="703.2,16.1 696.1,23.2 696.1,207.4 736.7,207.4 743.7,200.4 703.2,200.4 "/>
<polygon class="st0" points="775.5,141.4 758.5,141.4 758.5,148.5 768,148.5 768.5,148.5 808,207.4 855.4,207.4 862.4,200.4 
	815,200.4 "/>
<path class="st1" d="M718,1.3h84.2c23.4,0,41.6,6.6,53.7,18.7c10.3,10.3,15.8,24.8,15.8,42.1v0.5c0,29.7-16.1,48.4-39.5,57.1
	l45,65.8h-47.4l-39.5-59h-0.5h-31.3v59H718V1.3z M799.6,90.8c19.7,0,31.1-10.5,31.1-26.1v-0.5c0-17.4-12.1-26.3-31.8-26.3h-40.3
	v52.9H799.6z"/>
<path class="st0" d="M782.6,53.5h-24v7.1h18.4c20.2,0,31.4,8.9,31.4,25.5v0.5c0,1-0.1,2.1-0.2,3.3l0,0.2c2.1-0.4,4-0.9,5.8-1.5
	c0.7-2.4,1-5,1-7.6v-0.5C814.9,63.4,803.2,53.5,782.6,53.5z"/>
</svg>
